<?xml version="1.0" standalone="no"?>
<!DOCTYPE svg PUBLIC "-//W3C//DTD SVG 20010904//EN"
 "http://www.w3.org/TR/2001/REC-SVG-20010904/DTD/svg10.dtd">
<svg version="1.0" xmlns="http://www.w3.org/2000/svg"
 width="478.000000pt" height="477.000000pt" viewBox="0 0 478.000000 477.000000"
 preserveAspectRatio="xMidYMid meet">
<metadata>
Created by potrace 1.16, written by Peter Selinger 2001-2019
</metadata>
<g transform="translate(0.000000,477.000000) scale(0.100000,-0.100000)"
fill="#000000" stroke="none">
<path d="M2075 4746 c-883 -126 -1610 -707 -1919 -1532 -102 -273 -146 -523
-146 -834 -1 -375 76 -708 241 -1046 324 -665 953 -1148 1677 -1288 814 -157
1618 100 2190 699 334 350 546 781 628 1280 26 157 27 554 1 710 -86 517 -309
963 -660 1318 -353 358 -788 586 -1287 678 -145 27 -580 35 -725 15z m363
-618 c17 -17 17 -419 0 -436 -7 -7 -35 -12 -63 -12 -28 0 -56 5 -63 12 -18 18
-17 434 1 441 25 10 113 7 125 -5z m1030 -451 c23 -23 42 -47 42 -52 0 -18
-295 -305 -313 -305 -25 0 -87 63 -87 87 0 19 287 313 306 313 5 0 29 -19 52
-43z m-1993 -128 c97 -61 175 -118 175 -126 0 -22 -59 -103 -75 -103 -25 0
-365 221 -365 237 0 27 54 103 73 103 10 0 96 -50 192 -111z m1104 45 c493
-88 764 -494 675 -1015 -41 -242 -175 -535 -351 -767 -37 -48 -72 -103 -79
-123 -14 -40 -29 -151 -40 -299 -6 -84 -10 -97 -34 -121 -45 -45 -153 -64
-360 -63 -246 1 -351 27 -403 97 -19 24 -22 47 -27 200 -4 115 -10 180 -19
197 -8 14 -44 57 -82 97 -233 246 -370 588 -372 923 -1 188 27 310 106 465 61
119 199 254 324 317 212 107 416 136 662 92z m-1164 -784 l0 -65 -225 0 -225
0 -3 54 c-2 29 -1 60 2 67 5 12 46 14 228 12 l223 -3 0 -65z m2383 18 c13 -13
16 -106 4 -126 -7 -9 -59 -12 -228 -10 l-219 3 -3 58 c-2 35 2 64 9 73 15 19
418 21 437 2z m-1705 -1652 c95 -46 200 -60 327 -46 110 12 222 35 281 55 51
18 82 19 77 3 -12 -36 -140 -89 -298 -124 -102 -23 -350 -24 -401 -2 -48 21
-97 117 -72 141 9 10 8 10 86 -27z m647 -150 c0 -50 -285 -137 -551 -168
l-102 -12 -38 42 c-39 44 -56 89 -41 104 6 6 36 1 78 -12 99 -31 232 -30 394
4 69 14 145 32 170 40 59 19 90 20 90 2z m0 -175 c0 -45 -214 -116 -487 -161
-131 -22 -133 -22 -165 -3 -43 25 -67 67 -52 90 10 16 25 18 125 15 123 -4
256 12 424 52 130 31 155 32 155 7z m-12 -159 c2 -28 -1 -44 -10 -46 -7 -3
-80 -7 -163 -10 -143 -5 -148 -4 -115 11 64 28 255 92 270 90 10 -1 16 -16 18
-45z"/>
<path d="M2036 3189 l-26 -20 0 -573 c0 -562 0 -573 20 -594 26 -28 73 -29
100 -2 20 20 20 33 20 593 0 314 -4 577 -8 583 -9 14 -47 34 -65 34 -8 0 -26
-9 -41 -21z"/>
<path d="M2245 3185 c-14 -13 -25 -31 -25 -40 0 -20 19 -57 34 -67 6 -4 82 -8
169 -8 l157 0 0 -158 c0 -145 2 -160 20 -180 26 -28 73 -29 100 -2 19 19 20
33 20 229 l0 210 -26 20 c-25 20 -40 21 -226 21 -198 0 -199 0 -223 -25z"/>
<path d="M2232 2668 c-7 -7 -12 -35 -12 -63 0 -28 5 -56 12 -63 13 -13 441
-18 472 -6 20 8 23 113 4 132 -17 17 -459 17 -476 0z"/>
<path d="M2605 2475 c-24 -24 -25 -28 -25 -180 l0 -155 -155 0 c-152 0 -156
-1 -180 -25 -32 -31 -32 -59 0 -90 24 -25 25 -25 229 -25 269 0 246 -23 246
251 l0 208 -26 20 c-35 27 -59 26 -89 -4z"/>
</g>
</svg>
