<?xml version="1.0" standalone="no"?>
<!DOCTYPE svg PUBLIC "-//W3C//DTD SVG 20010904//EN"
 "http://www.w3.org/TR/2001/REC-SVG-20010904/DTD/svg10.dtd">
<svg version="1.0" xmlns="http://www.w3.org/2000/svg"
 width="478.000000pt" height="477.000000pt" viewBox="0 0 478.000000 477.000000"
 preserveAspectRatio="xMidYMid meet">
<metadata>
Created by potrace 1.16, written by Peter Selinger 2001-2019
</metadata>
<g transform="translate(0.000000,477.000000) scale(0.100000,-0.100000)"
fill="#000000" stroke="none">
<path d="M2075 4746 c-883 -126 -1610 -707 -1919 -1532 -102 -273 -146 -523
-146 -834 -1 -375 76 -708 241 -1046 324 -665 953 -1148 1677 -1288 814 -157
1618 100 2190 699 334 350 546 781 628 1280 26 157 27 554 1 710 -86 517 -309
963 -660 1318 -353 358 -788 586 -1287 678 -145 27 -580 35 -725 15z m373
-608 c17 -17 17 -439 0 -456 -7 -7 -39 -12 -73 -12 -34 0 -66 5 -73 12 -18 18
-17 454 1 461 25 11 133 7 145 -5z m1030 -451 c23 -23 42 -52 42 -62 0 -24
-297 -325 -321 -325 -9 0 -37 22 -63 50 -42 45 -46 52 -35 72 20 39 296 308
316 308 10 0 38 -19 61 -43z m-1994 -127 c195 -123 199 -128 146 -205 -22 -32
-38 -45 -55 -45 -14 0 -100 48 -200 111 -154 98 -175 115 -175 138 0 25 41 98
64 113 18 12 42 0 220 -112z m1094 44 c336 -60 577 -265 668 -569 36 -123 44
-300 19 -446 -43 -259 -185 -566 -381 -821 -55 -71 -69 -124 -87 -330 -8 -91
-19 -163 -26 -172 -73 -87 -579 -99 -740 -17 -68 35 -73 49 -80 249 -8 189
-11 201 -64 254 -197 197 -344 481 -392 754 -17 100 -20 323 -4 410 36 208
151 405 300 519 122 92 304 163 475 183 86 10 204 5 312 -14z m-1157 -714 c16
-9 19 -22 19 -73 0 -34 -5 -69 -10 -77 -8 -12 -45 -16 -213 -18 -123 -2 -213
1 -230 7 -26 10 -27 14 -27 79 0 40 5 73 12 80 15 15 420 17 449 2z m2387 -52
c13 -13 16 -126 4 -146 -7 -9 -61 -12 -238 -10 l-229 3 -3 68 c-2 42 2 74 9
83 15 19 438 21 457 2z m-1727 -1642 c132 -74 346 -74 605 0 106 30 130 25
100 -20 -51 -79 -343 -153 -570 -144 -144 6 -174 18 -205 81 -47 98 -18 132
70 83z m665 -150 c41 -31 -24 -75 -186 -126 -197 -61 -461 -98 -496 -69 -59
48 -94 142 -60 155 8 3 52 -4 97 -15 50 -13 115 -21 162 -21 81 0 267 33 387
69 81 24 73 24 96 7z m4 -171 c45 -54 -100 -121 -388 -180 -229 -46 -284 -43
-326 17 -19 27 -21 74 -3 85 6 4 75 8 152 9 145 0 255 15 427 59 114 28 122
29 138 10z m-9 -146 c14 -28 3 -86 -19 -98 -10 -5 -91 -11 -180 -13 -209 -4
-210 6 -12 78 163 59 194 64 211 33z"/>
<path d="M2320 4110 c-7 -12 -9 -91 -8 -212 l3 -193 55 0 55 0 3 199 c2 138
-1 203 -9 212 -18 22 -86 18 -99 -6z"/>
<path d="M3267 3553 l-147 -148 40 -40 40 -40 145 145 c80 80 145 150 145 155
0 11 -61 75 -71 75 -3 0 -71 -66 -152 -147z"/>
<path d="M1250 3606 l-30 -45 32 -24 c70 -52 306 -197 321 -197 15 0 57 61 57
83 -1 7 -69 55 -152 107 -216 136 -192 128 -228 76z"/>
<path d="M2231 3584 c-208 -35 -373 -117 -500 -249 -158 -164 -223 -343 -224
-610 0 -335 128 -654 367 -913 100 -109 106 -127 106 -309 0 -144 10 -194 43
-215 127 -83 599 -90 706 -10 28 21 26 11 50 262 12 125 25 180 50 207 24 26
112 149 152 213 105 165 187 349 236 531 25 94 28 120 28 274 0 148 -3 180
-23 249 -39 136 -94 229 -197 332 -80 80 -104 98 -195 142 -117 57 -221 87
-355 102 -111 12 -138 12 -244 -6z m-99 -418 c4 -6 8 -266 8 -578 l0 -567 -22
-15 c-30 -21 -54 -20 -78 4 -20 20 -20 33 -20 583 0 525 1 565 18 579 9 9 24
18 32 20 16 6 51 -9 62 -26z m552 13 l26 -20 0 -198 c0 -162 -3 -200 -16 -219
-19 -28 -57 -29 -84 -2 -18 18 -20 33 -20 180 l0 160 -154 0 c-85 0 -162 3
-171 6 -24 10 -37 51 -24 75 17 33 46 38 235 38 169 1 183 0 208 -20z m24
-576 l-3 -58 -229 -3 c-177 -2 -231 1 -238 10 -9 16 -11 92 -1 101 3 4 112 7
240 7 l234 0 -3 -57z m-18 -133 c19 -19 20 -33 20 -220 0 -187 -1 -201 -20
-220 -19 -19 -33 -20 -207 -20 -104 0 -198 3 -209 6 -45 12 -51 91 -9 108 9 3
86 6 171 6 l154 0 0 155 c0 152 1 156 25 180 29 30 49 31 75 5z"/>
<path d="M994 2856 c-3 -7 -4 -33 -2 -57 l3 -44 205 0 205 0 0 55 0 55 -203 3
c-167 2 -203 0 -208 -12z"/>
<path d="M3370 2765 c0 -48 3 -55 23 -60 12 -3 105 -4 207 -3 l185 3 0 55 0
55 -207 3 -208 2 0 -55z"/>
<path d="M2020 1175 c0 -28 33 -83 58 -97 18 -9 70 -13 191 -12 146 0 178 4
263 27 92 24 223 75 215 84 -2 2 -46 -8 -98 -21 -246 -64 -480 -57 -596 19
-28 19 -33 19 -33 0z"/>
<path d="M2611 999 c-229 -62 -373 -73 -506 -39 -43 11 -81 17 -84 14 -9 -8
34 -77 60 -96 22 -16 31 -17 129 -3 188 26 348 66 453 112 31 14 57 30 57 34
0 5 -1 8 -2 8 -2 -1 -50 -14 -107 -30z"/>
<path d="M2675 849 c-151 -46 -444 -84 -557 -73 -65 6 -68 6 -68 -15 0 -34 43
-71 83 -71 154 0 587 118 587 160 0 12 -4 11 -45 -1z"/>
</g>
</svg>
